ply
format ascii 1.0
comment generated by tinyply 2.2
element vertex 258
property float x
property float y
property float z
element face 512
property list uchar uint vertex_indices
end_header
0.999893 0.499893 -0.000105357 
0.980914 0.694895 -8.45136e-05 
0.980892 0.499874 0.194895 
0.923934 0.882901 -6.44842e-05 
0.959914 0.698876 0.198916 
0.923892 0.49986 0.382894 
0.706969 1.20692 -3.0167e-05 
0.788954 1.07689 0.210956 
0.830952 1.05591 -4.61217e-05 
0.815936 0.907869 0.407938 
0.889936 0.904882 0.208938 
0.706891 0.499848 0.706894 
0.830892 0.499851 0.555894 
0.788914 0.710853 0.576917 
0.889914 0.708861 0.404917 
-3.15277e-15 1.5 -1.92768e-13 
-2.37412e-06 1.48098 0.194998 
0.194998 1.48098 -1.70312e-06 
-8.81822e-06 1.42396 0.382992 
0.198995 1.45996 0.198996 
0.382992 1.42396 -7.48616e-06 
-3.26818e-05 1.20692 0.706969 
0.210976 1.28892 0.576978 
-1.91038e-05 1.33094 0.555982 
0.40798 1.31591 0.407981 
0.208988 1.38993 0.404989 
0.555982 1.33094 -1.71486e-05 
0.576977 1.28892 0.210978 
0.404988 1.38993 0.208989 
-0.000109128 0.499893 0.999893 
0.194891 0.499874 0.980893 
-8.81488e-05 0.694895 0.980914 
0.382891 0.49986 0.923894 
0.198912 0.698876 0.959915 
-6.78565e-05 0.882901 0.923934 
0.576914 0.710854 0.788916 
0.555891 0.499851 0.830894 
0.407935 0.907869 0.815937 
0.404914 0.708861 0.889916 
-4.9114e-05 1.05591 0.830952 
0.210953 1.07689 0.788955 
0.208935 0.904882 0.889937 
0.639961 1.13989 0.425963 
0.42596 1.13989 0.639962 
0.639937 0.925863 0.63994 
0.980872 0.304895 -0.000126265 
0.923851 0.116901 -0.000146487 
0.959871 0.300876 0.198873 
0.706817 -0.207076 -0.000181541 
0.78883 -0.0771073 0.210833 
0.830833 -0.0560892 -0.000165166 
0.815848 0.0918687 0.407851 
0.889849 0.094882 0.208851 
0.788869 0.288853 0.576872 
0.889869 0.290861 0.404872 
-0.000214839 -0.5 -0.000214108 
-0.000213132 -0.481021 0.194788 
0.194787 -0.481021 -0.000211743 
-0.00020733 -0.424041 0.382794 
0.198789 -0.460043 0.198791 
0.382793 -0.424041 -0.000205322 
-0.000184573 -0.207076 0.706817 
0.210807 -0.289084 0.576809 
-0.000197635 -0.331059 0.555804 
0.407804 -0.316087 0.407806 
0.208796 -0.390066 0.404798 
0.555803 -0.33106 -0.000195072 
0.576807 -0.289085 0.210809 
0.404797 -0.390066 0.208798 
-0.000130043 0.304895 0.980872 
0.19887 0.300876 0.959872 
-0.00015014 0.116901 0.923852 
0.576869 0.288854 0.788871 
0.407847 0.0918688 0.81585 
0.404869 0.290861 0.889871 
-0.000168565 -0.0560889 0.830833 
0.210829 -0.0771071 0.788832 
0.208848 0.0948823 0.88985 
0.639823 -0.140114 0.425826 
0.425823 -0.140114 0.639825 
0.639846 0.0738628 0.639848 
0.980893 0.499916 -0.195105 
0.959914 0.698918 -0.199084 
0.923893 0.499942 -0.383105 
0.788955 1.07694 -0.211044 
0.815937 0.907956 -0.408062 
0.889936 0.904927 -0.209062 
0.706894 0.5 -0.707106 
0.830894 0.49997 -0.556106 
0.788916 0.710977 -0.577083 
0.889916 0.708948 -0.405083 
-1.70783e-06 1.48102 -0.195002 
-7.50957e-06 1.42404 -0.383008 
0.198996 1.46 -0.199004 
-3.02661e-05 1.20708 -0.707031 
0.210978 1.28904 -0.577022 
-1.7204e-05 1.33106 -0.556018 
0.407981 1.316 -0.408019 
0.208989 1.39002 -0.405011 
0.576978 1.28896 -0.211022 
0.404989 1.38998 -0.209011 
-0.000105711 0.500107 -1.00011 
0.194894 0.500084 -0.981107 
-8.47969e-05 0.695105 -0.981086 
0.382894 0.500058 -0.924106 
0.198916 0.699081 -0.960085 
-6.46994e-05 0.883099 -0.924066 
0.576917 0.711022 -0.789083 
0.555894 0.500029 -0.831106 
0.407938 0.908044 -0.816063 
0.404917 0.709052 -0.890084 
-4.62746e-05 1.05609 -0.831047 
0.210956 1.07706 -0.789045 
0.208938 0.905073 -0.890063 
0.639962 1.13998 -0.426037 
0.425962 1.14002 -0.640038 
0.639939 0.926 -0.64006 
0.959872 0.300918 -0.199127 
0.788831 -0.0770622 -0.211167 
0.815849 0.091956 -0.408149 
0.889849 0.0949268 -0.209149 
0.788871 0.288977 -0.577128 
0.889871 0.290948 -0.405128 
-0.000212465 -0.480979 -0.195212 
-0.000206021 -0.423959 -0.383206 
0.19879 -0.46 -0.199209 
-0.000182158 -0.206924 -0.707183 
0.210809 -0.288961 -0.577191 
-0.000195736 -0.33094 -0.556196 
0.407806 -0.316 -0.408194 
0.208798 -0.389979 -0.405202 
0.576808 -0.289039 -0.211191 
0.404797 -0.390021 -0.209202 
-0.000126691 0.305105 -0.981128 
0.198873 0.301081 -0.960128 
-0.000146983 0.117099 -0.924148 
0.576871 0.289023 -0.789129 
0.40785 0.0920435 -0.81615 
0.404872 0.291052 -0.890129 
-0.000165725 -0.055911 -0.831167 
0.210832 -0.0769382 -0.789168 
0.208851 0.0950728 -0.89015 
0.639825 -0.140023 -0.426174 
0.425825 -0.139977 -0.640175 
0.639848 0.0739998 -0.640152 
-1.00011 0.500107 -0.000108751 
-0.981086 0.695105 -8.7843e-05 
-0.981108 0.500085 0.194891 
-0.924066 0.883099 -6.76201e-05 
-0.960086 0.699082 0.198913 
-0.924108 0.500058 0.382891 
-0.707031 1.20708 -3.25665e-05 
-0.789046 1.07706 0.210953 
-0.831048 1.05609 -4.8942e-05 
-0.816064 0.908044 0.407935 
-0.890064 0.905073 0.208935 
-0.707109 0.5 0.706892 
-0.831108 0.50003 0.555892 
-0.789086 0.711023 0.576914 
-0.890086 0.709052 0.404914 
-0.195002 1.48102 -2.36492e-06 
-0.199005 1.46 0.198995 
-0.383008 1.42404 -8.78601e-06 
-0.211024 1.28896 0.576977 
-0.40802 1.316 0.40798 
-0.209013 1.38998 0.404988 
-0.556018 1.33106 -1.90356e-05 
-0.577023 1.28904 0.210976 
-0.405012 1.39002 0.208988 
-0.195109 0.499916 0.980893 
-0.383109 0.499942 0.923892 
-0.199088 0.698919 0.959914 
-0.577086 0.710977 0.788915 
-0.556109 0.499971 0.830892 
-0.408065 0.907956 0.815936 
-0.405086 0.708948 0.889915 
-0.211047 1.07694 0.788954 
-0.209065 0.904927 0.889936 
-0.640039 1.14002 0.42596 
-0.42604 1.13998 0.639961 
-0.640063 0.926 0.639937 
-0.981128 0.305105 -0.000129594 
-0.924149 0.117099 -0.000149623 
-0.960129 0.301082 0.19887 
-0.707183 -0.206924 -0.000183941 
-0.78917 -0.0769378 0.21083 
-0.831167 -0.0559107 -0.000167986 
-0.816152 0.092044 0.407848 
-0.890151 0.0950732 0.208848 
-0.789131 0.289023 0.576869 
-0.890131 0.291052 0.404869 
-0.195213 -0.480979 -0.000212404 
-0.199211 -0.46 0.19879 
-0.383207 -0.423959 -0.000206621 
-0.211193 -0.289039 0.576808 
-0.408196 -0.316 0.407805 
-0.209204 -0.390021 0.404797 
-0.556197 -0.33094 -0.000196959 
-0.577193 -0.288961 0.210808 
-0.405203 -0.389979 0.208797 
-0.19913 0.300919 0.959871 
-0.577131 0.288978 0.788869 
-0.408153 0.0919565 0.815849 
-0.405131 0.290948 0.88987 
-0.211171 -0.0770618 0.788831 
-0.209152 0.0949272 0.889849 
-0.640177 -0.139977 0.425823 
-0.426177 -0.140023 0.639824 
-0.640154 0.0740003 0.639846 
-0.981107 0.500126 -0.195109 
-0.960086 0.699124 -0.199087 
-0.924107 0.50014 -0.383109 
-0.789045 1.07711 -0.211047 
-0.816063 0.908131 -0.408065 
-0.890064 0.905118 -0.209065 
-0.707106 0.500152 -0.707108 
-0.831106 0.500149 -0.556108 
-0.789084 0.711147 -0.577086 
-0.890084 0.709139 -0.405086 
-0.199004 1.46004 -0.199005 
-0.211022 1.28908 -0.577023 
-0.408019 1.31609 -0.40802 
-0.209011 1.39007 -0.405012 
-0.577022 1.28908 -0.211024 
-0.405011 1.39007 -0.209012 
-0.195106 0.500126 -0.981107 
-0.383106 0.50014 -0.924108 
-0.199084 0.699124 -0.960086 
-0.577083 0.711146 -0.789085 
-0.556106 0.500149 -0.831108 
-0.408062 0.908131 -0.816064 
-0.405083 0.709139 -0.890085 
-0.211044 1.07711 -0.789046 
-0.209062 0.905118 -0.890064 
-0.640038 1.14011 -0.42604 
-0.426038 1.14011 -0.640039 
-0.640061 0.926137 -0.640063 
-0.960128 0.301124 -0.19913 
-0.789169 -0.0768927 -0.21117 
-0.816151 0.0921314 -0.408152 
-0.890151 0.095118 -0.209152 
-0.789129 0.289147 -0.577131 
-0.890129 0.291139 -0.405131 
-0.19921 -0.459957 -0.19921 
-0.211191 -0.288916 -0.577192 
-0.408194 -0.315912 -0.408195 
-0.209202 -0.389934 -0.405203 
-0.577192 -0.288915 -0.211192 
-0.405203 -0.389934 -0.209203 
-0.199127 0.301124 -0.960129 
-0.577129 0.289146 -0.789131 
-0.40815 0.0921312 -0.816151 
-0.405128 0.291139 -0.89013 
-0.211168 -0.0768929 -0.789169 
-0.209149 0.0951177 -0.890151 
-0.640175 -0.139886 -0.426177 
-0.426175 -0.139886 -0.640176 
-0.640152 0.0741373 -0.640154 
3 0 1 2 
3 3 4 1 
3 5 2 4 
3 1 4 2 
3 6 7 8 
3 9 10 7 
3 3 8 10 
3 7 10 8 
3 11 12 13 
3 5 14 12 
3 9 13 14 
3 12 14 13 
3 3 10 4 
3 9 14 10 
3 5 4 14 
3 10 14 4 
3 15 16 17 
3 18 19 16 
3 20 17 19 
3 16 19 17 
3 21 22 23 
3 24 25 22 
3 18 23 25 
3 22 25 23 
3 6 26 27 
3 20 28 26 
3 24 27 28 
3 26 28 27 
3 18 25 19 
3 24 28 25 
3 20 19 28 
3 25 28 19 
3 29 30 31 
3 32 33 30 
3 34 31 33 
3 30 33 31 
3 11 35 36 
3 37 38 35 
3 32 36 38 
3 35 38 36 
3 21 39 40 
3 34 41 39 
3 37 40 41 
3 39 41 40 
3 32 38 33 
3 37 41 38 
3 34 33 41 
3 38 41 33 
3 6 27 7 
3 24 42 27 
3 9 7 42 
3 27 42 7 
3 21 40 22 
3 37 43 40 
3 24 22 43 
3 40 43 22 
3 11 13 35 
3 9 44 13 
3 37 35 44 
3 13 44 35 
3 24 43 42 
3 37 44 43 
3 9 42 44 
3 43 44 42 
3 2 45 0 
3 45 47 46 
3 47 2 5 
3 2 47 45 
3 50 49 48 
3 49 52 51 
3 52 50 46 
3 50 52 49 
3 53 12 11 
3 12 54 5 
3 54 53 51 
3 53 54 12 
3 47 52 46 
3 52 54 51 
3 54 47 5 
3 47 54 52 
3 57 56 55 
3 56 59 58 
3 59 57 60 
3 57 59 56 
3 63 62 61 
3 62 65 64 
3 65 63 58 
3 63 65 62 
3 67 66 48 
3 66 68 60 
3 68 67 64 
3 67 68 66 
3 59 65 58 
3 65 68 64 
3 68 59 60 
3 59 68 65 
3 69 30 29 
3 30 70 32 
3 70 69 71 
3 69 70 30 
3 36 72 11 
3 72 74 73 
3 74 36 32 
3 36 74 72 
3 76 75 61 
3 75 77 71 
3 77 76 73 
3 76 77 75 
3 70 74 32 
3 74 77 73 
3 77 70 71 
3 70 77 74 
3 49 67 48 
3 67 78 64 
3 78 49 51 
3 49 78 67 
3 62 76 61 
3 76 79 73 
3 79 62 64 
3 62 79 76 
3 72 53 11 
3 53 80 51 
3 80 72 73 
3 72 80 53 
3 78 79 64 
3 79 80 73 
3 80 78 51 
3 78 80 79 
3 81 1 0 
3 1 82 3 
3 82 81 83 
3 81 82 1 
3 8 84 6 
3 84 86 85 
3 86 8 3 
3 8 86 84 
3 89 88 87 
3 88 90 83 
3 90 89 85 
3 89 90 88 
3 82 86 3 
3 86 90 85 
3 90 82 83 
3 82 90 86 
3 17 91 15 
3 91 93 92 
3 93 17 20 
3 17 93 91 
3 96 95 94 
3 95 98 97 
3 98 96 92 
3 96 98 95 
3 99 26 6 
3 26 100 20 
3 100 99 97 
3 99 100 26 
3 93 98 92 
3 98 100 97 
3 100 93 20 
3 93 100 98 
3 103 102 101 
3 102 105 104 
3 105 103 106 
3 103 105 102 
3 108 107 87 
3 107 110 109 
3 110 108 104 
3 108 110 107 
3 112 111 94 
3 111 113 106 
3 113 112 109 
3 112 113 111 
3 105 110 104 
3 110 113 109 
3 113 105 106 
3 105 113 110 
3 84 99 6 
3 99 114 97 
3 114 84 85 
3 84 114 99 
3 95 112 94 
3 112 115 109 
3 115 95 97 
3 95 115 112 
3 107 89 87 
3 89 116 85 
3 116 107 109 
3 107 116 89 
3 114 115 97 
3 115 116 109 
3 116 114 85 
3 114 116 115 
3 0 45 81 
3 46 117 45 
3 83 81 117 
3 45 117 81 
3 48 118 50 
3 119 120 118 
3 46 50 120 
3 118 120 50 
3 87 88 121 
3 83 122 88 
3 119 121 122 
3 88 122 121 
3 46 120 117 
3 119 122 120 
3 83 117 122 
3 120 122 117 
3 55 123 57 
3 124 125 123 
3 60 57 125 
3 123 125 57 
3 126 127 128 
3 129 130 127 
3 124 128 130 
3 127 130 128 
3 48 66 131 
3 60 132 66 
3 129 131 132 
3 66 132 131 
3 124 130 125 
3 129 132 130 
3 60 125 132 
3 130 132 125 
3 101 102 133 
3 104 134 102 
3 135 133 134 
3 102 134 133 
3 87 136 108 
3 137 138 136 
3 104 108 138 
3 136 138 108 
3 126 139 140 
3 135 141 139 
3 137 140 141 
3 139 141 140 
3 104 138 134 
3 137 141 138 
3 135 134 141 
3 138 141 134 
3 48 131 118 
3 129 142 131 
3 119 118 142 
3 131 142 118 
3 126 140 127 
3 137 143 140 
3 129 127 143 
3 140 143 127 
3 87 121 136 
3 119 144 121 
3 137 136 144 
3 121 144 136 
3 129 143 142 
3 137 144 143 
3 119 142 144 
3 143 144 142 
3 147 146 145 
3 146 149 148 
3 149 147 150 
3 147 149 146 
3 153 152 151 
3 152 155 154 
3 155 153 148 
3 153 155 152 
3 158 157 156 
3 157 159 150 
3 159 158 154 
3 158 159 157 
3 149 155 148 
3 155 159 154 
3 159 149 150 
3 149 159 155 
3 160 16 15 
3 16 161 18 
3 161 160 162 
3 160 161 16 
3 23 163 21 
3 163 165 164 
3 165 23 18 
3 23 165 163 
3 167 166 151 
3 166 168 162 
3 168 167 164 
3 167 168 166 
3 161 165 18 
3 165 168 164 
3 168 161 162 
3 161 168 165 
3 31 169 29 
3 169 171 170 
3 171 31 34 
3 31 171 169 
3 173 172 156 
3 172 175 174 
3 175 173 170 
3 173 175 172 
3 176 39 21 
3 39 177 34 
3 177 176 174 
3 176 177 39 
3 171 175 170 
3 175 177 174 
3 177 171 34 
3 171 177 175 
3 152 167 151 
3 167 178 164 
3 178 152 154 
3 152 178 167 
3 163 176 21 
3 176 179 174 
3 179 163 164 
3 163 179 176 
3 172 158 156 
3 158 180 154 
3 180 172 174 
3 172 180 158 
3 178 179 164 
3 179 180 174 
3 180 178 154 
3 178 180 179 
3 145 181 147 
3 182 183 181 
3 150 147 183 
3 181 183 147 
3 184 185 186 
3 187 188 185 
3 182 186 188 
3 185 188 186 
3 156 157 189 
3 150 190 157 
3 187 189 190 
3 157 190 189 
3 182 188 183 
3 187 190 188 
3 150 183 190 
3 188 190 183 
3 55 56 191 
3 58 192 56 
3 193 191 192 
3 56 192 191 
3 61 194 63 
3 195 196 194 
3 58 63 196 
3 194 196 63 
3 184 197 198 
3 193 199 197 
3 195 198 199 
3 197 199 198 
3 58 196 192 
3 195 199 196 
3 193 192 199 
3 196 199 192 
3 29 169 69 
3 170 200 169 
3 71 69 200 
3 169 200 69 
3 156 201 173 
3 202 203 201 
3 170 173 203 
3 201 203 173 
3 61 75 204 
3 71 205 75 
3 202 204 205 
3 75 205 204 
3 170 203 200 
3 202 205 203 
3 71 200 205 
3 203 205 200 
3 184 198 185 
3 195 206 198 
3 187 185 206 
3 198 206 185 
3 61 204 194 
3 202 207 204 
3 195 194 207 
3 204 207 194 
3 156 189 201 
3 187 208 189 
3 202 201 208 
3 189 208 201 
3 195 207 206 
3 202 208 207 
3 187 206 208 
3 207 208 206 
3 145 146 209 
3 148 210 146 
3 211 209 210 
3 146 210 209 
3 151 212 153 
3 213 214 212 
3 148 153 214 
3 212 214 153 
3 215 216 217 
3 211 218 216 
3 213 217 218 
3 216 218 217 
3 148 214 210 
3 213 218 214 
3 211 210 218 
3 214 218 210 
3 15 91 160 
3 92 219 91 
3 162 160 219 
3 91 219 160 
3 94 220 96 
3 221 222 220 
3 92 96 222 
3 220 222 96 
3 151 166 223 
3 162 224 166 
3 221 223 224 
3 166 224 223 
3 92 222 219 
3 221 224 222 
3 162 219 224 
3 222 224 219 
3 101 225 103 
3 226 227 225 
3 106 103 227 
3 225 227 103 
3 215 228 229 
3 230 231 228 
3 226 229 231 
3 228 231 229 
3 94 111 232 
3 106 233 111 
3 230 232 233 
3 111 233 232 
3 226 231 227 
3 230 233 231 
3 106 227 233 
3 231 233 227 
3 151 223 212 
3 221 234 223 
3 213 212 234 
3 223 234 212 
3 94 232 220 
3 230 235 232 
3 221 220 235 
3 232 235 220 
3 215 217 228 
3 213 236 217 
3 230 228 236 
3 217 236 228 
3 221 235 234 
3 230 236 235 
3 213 234 236 
3 235 236 234 
3 209 181 145 
3 181 237 182 
3 237 209 211 
3 209 237 181 
3 186 238 184 
3 238 240 239 
3 240 186 182 
3 186 240 238 
3 241 216 215 
3 216 242 211 
3 242 241 239 
3 241 242 216 
3 237 240 182 
3 240 242 239 
3 242 237 211 
3 237 242 240 
3 191 123 55 
3 123 243 124 
3 243 191 193 
3 191 243 123 
3 128 244 126 
3 244 246 245 
3 246 128 124 
3 128 246 244 
3 247 197 184 
3 197 248 193 
3 248 247 245 
3 247 248 197 
3 243 246 124 
3 246 248 245 
3 248 243 193 
3 243 248 246 
3 133 225 101 
3 225 249 226 
3 249 133 135 
3 133 249 225 
3 229 250 215 
3 250 252 251 
3 252 229 226 
3 229 252 250 
3 253 139 126 
3 139 254 135 
3 254 253 251 
3 253 254 139 
3 249 252 226 
3 252 254 251 
3 254 249 135 
3 249 254 252 
3 238 247 184 
3 247 255 245 
3 255 238 239 
3 238 255 247 
3 244 253 126 
3 253 256 251 
3 256 244 245 
3 244 256 253 
3 250 241 215 
3 241 257 239 
3 257 250 251 
3 250 257 241 
3 255 256 245 
3 256 257 251 
3 257 255 239 
3 255 257 256 
